<svg xmlns="http://www.w3.org/2000/svg" class="iconLeft" viewBox="0 0 556 90"><path fill="#FFF" d="M115.006 75q-6.412 0-11.278-2.118-4.867-2.119-7.5-6.069-2.634-4.008-2.634-9.218v-1.03q0-.63.4-1.03.402-.401 1.031-.401h10.191q.63 0 1.03.286.402.286.402.687v.973q0 2.52 2.633 4.523 2.577 2.004 6.641 2.004 3.55 0 5.21-1.489 1.718-1.545 1.718-3.55 0-2.232-2.004-3.434-1.947-1.203-6.985-2.806l-1.774-.572q-5.096-1.66-8.989-3.664-3.836-1.947-6.527-5.44-2.748-3.492-2.748-8.587 0-4.981 2.634-8.702 2.576-3.722 7.213-5.726 4.58-2.003 10.42-2.003 6.184 0 11.107 2.232 4.924 2.233 7.73 6.355 2.805 4.065 2.805 9.332v.687q0 .63-.401 1.031-.401.4-1.03.4h-10.192q-.63 0-1.03-.228-.4-.172-.4-.573v-.744q0-2.805-2.463-4.981-2.519-2.118-6.698-2.118-3.092 0-4.867 1.26-1.774 1.259-1.774 3.606 0 1.775 1.145 2.92 1.087 1.145 3.492 2.176 2.347.973 7.214 2.576 5.61 1.946 8.76 3.378 3.148 1.431 5.896 4.694 2.748 3.264 2.748 8.53 0 5.04-2.633 8.875-2.634 3.779-7.443 5.897Q121.246 75 115.006 75Zm51.012-40.649q0-.63.4-1.03.401-.401 1.088-.401h10.42q.63 0 1.03.4.402.401.402 1.031V72.94q0 .63-.401 1.03-.401.401-1.03.401h-10.42q-.688 0-1.088-.4-.401-.401-.401-1.031v-2.004q0-.4-.172-.515-.229-.057-.458.286Q162.01 75 155.483 75q-6.125 0-9.904-3.836-3.721-3.836-3.721-10.763V34.35q0-.63.4-1.03.401-.401 1.03-.401h10.42q.63 0 1.031.4.401.401.401 1.031v23.015q0 2.806 1.431 4.523 1.432 1.66 3.95 1.66 2.233 0 3.722-1.373 1.489-1.374 1.775-3.607V34.35ZM203.69 75q-5.668 0-9.905-1.546-4.18-1.546-6.47-4.408-2.29-2.863-2.29-6.527v-.4q0-.63.401-1.031.401-.401 1.03-.401h9.905q1.432 0 1.432.458v.458q0 1.546 1.603 2.52 1.66 1.03 4.236 1.03 2.233 0 3.607-.745 1.374-.801 1.374-2.06 0-1.26-1.431-1.89-1.489-.573-4.58-1.145-5.038-.973-8.187-2.347-4.008-1.66-6.47-4.237-2.404-2.576-2.404-6.87 0-6.298 4.809-9.905 4.866-3.664 12.824-3.664 5.325 0 9.39 1.718 4.065 1.717 6.297 4.866 2.233 3.092 2.233 7.214 0 .4-.4.687-.401.286-1.031.286h-9.561q-1.432 0-1.432-.515v-.458q0-1.546-1.43-2.52-1.432-.915-3.951-.915-2.233 0-3.607.744-1.431.744-1.431 2.118 0 1.374 1.545 1.947 1.489.63 5.096 1.317 4.924.973 6.584 1.545 4.923 1.603 7.672 4.352 2.748 2.69 2.748 7.27 0 6.241-4.924 9.676Q212.048 75 203.69 75Zm48.893-32.863q0 .63-.401 1.03-.4.402-1.03.402h-6.642q-.572 0-.572.572v14.027q0 4.58 3.721 4.58h2.462q.63 0 1.03.4.401.402.401 1.031v8.416q0 1.317-1.374 1.432-3.664.171-5.21.171-6.927 0-10.305-2.232-3.378-2.233-3.435-8.36V44.142q0-.572-.573-.572h-3.95q-.63 0-1.03-.401-.401-.4-.401-1.03V34.35q0-.63.4-1.03.401-.401 1.03-.401h3.951q.573 0 .573-.573v-9.045q0-.63.4-1.031.401-.4 1.031-.4h9.847q.63 0 1.03.4.402.4.402 1.03v9.046q0 .573.572.573h6.641q.63 0 1.03.4.402.401.402 1.031v7.786Zm22.786-9.847q5.267 0 9.618 1.775 4.351 1.832 6.813 4.98 2.462 3.207 2.462 7.043v26.85q0 .63-.4 1.031-.401.401-1.031.401h-10.42q-.63 0-1.03-.4-.401-.401-.401-1.031v-1.603q0-.4-.23-.515-.171-.058-.4.286Q277.144 75 269.987 75q-6.297 0-10.076-2.977-3.779-3.034-3.779-8.874 0-6.183 4.294-9.561 4.294-3.32 12.367-3.32h7.614q.573 0 .573-.573V48.32q0-2.176-1.432-3.378-1.374-1.26-3.95-1.26-1.832 0-3.149.573-1.317.63-1.89 1.66-.4.573-.743.859-.401.286-.917.172l-10.763-1.374q-1.431-.115-1.26-1.088.401-3.435 2.863-6.24 2.462-2.749 6.527-4.352 4.065-1.603 9.103-1.603Zm-1.374 33.206q3.034 0 5.038-1.603 1.947-1.546 1.947-4.122v-1.775q0-.515-.573-.515h-4.637q-3.035 0-4.695 1.03-1.66 1.031-1.66 3.092 0 1.775 1.202 2.805 1.202 1.088 3.378 1.088Zm34.18-35.267q-3.55 0-5.726-2.176-2.175-2.118-2.175-5.553 0-3.378 2.175-5.439Q304.625 15 308.174 15q3.493 0 5.668 2.061 2.176 2.061 2.176 5.439 0 3.435-2.176 5.553-2.175 2.176-5.668 2.176Zm-5.21 44.141q-.688 0-1.088-.4-.401-.401-.401-1.031V34.35q0-.63.4-1.03.401-.401 1.088-.401h10.42q.63 0 1.03.4.402.401.402 1.031V72.94q0 .63-.401 1.03-.401.401-1.03.401h-10.42Zm42.538-42.08q6.24 0 10.19 3.95 4.008 4.008 4.008 10.821V72.94q0 .63-.4 1.03-.401.401-1.031.401h-10.42q-.687 0-1.088-.4-.4-.401-.4-1.031V49.924q0-2.806-1.49-4.523-1.43-1.718-3.95-1.718-2.461 0-4.007 1.718-1.489 1.717-1.489 4.523v23.015q0 .63-.4 1.03-.401.401-1.088.401h-10.42q-.63 0-1.03-.4-.401-.401-.401-1.031V34.35q0-.63.4-1.03.401-.401 1.03-.401h10.42q.688 0 1.088.4.401.401.401 1.031v2.29q0 .401.172.458.229.057.343-.229 3.321-4.58 9.562-4.58Zm52.328 12.653q.63 0 1.03.4.401.401.401 1.031v8.53q0 .63-.4 1.031-.401.4-1.031.4h-9.504q-.573 0-.573.573v9.447q0 .63-.4 1.03-.401.401-1.03.401h-8.417q-.687 0-1.088-.4-.4-.401-.4-1.031v-9.447q0-.572-.516-.572h-9.618q-.687 0-1.088-.4-.4-.402-.4-1.031v-8.531q0-.63.4-1.03.401-.401 1.088-.401h9.618q.516 0 .516-.573v-9.618q0-.63.4-1.03.401-.401 1.088-.401h8.416q.63 0 1.03.4.401.401.401 1.03v9.62q0 .572.573.572h9.504ZM425.884 75q-6.412 0-11.221-2.576-4.867-2.52-7.557-7.214-2.691-4.637-2.691-10.706V38.073q0-6.126 2.69-10.707 2.691-4.637 7.558-7.156 4.809-2.576 11.221-2.576 6.355 0 11.222 2.461 4.923 2.405 7.614 6.642 2.634 4.294 2.634 9.389 0 1.374-1.432 1.374h-10.42q-1.43 0-1.43-.458v-.515q0-3.092-2.176-5.325-2.233-2.175-6.012-2.175-3.664 0-5.897 2.404-2.29 2.405-2.29 6.24v17.234q0 3.835 2.52 6.24 2.461 2.405 6.24 2.405 3.55 0 5.668-1.89 2.175-1.889 2.175-5.267v-2.06q0-.573-.572-.573H426.4q-.688 0-1.088-.401-.401-.401-.401-1.03v-7.844q0-.63.4-1.03.401-.402 1.089-.402h19.522q.63 0 1.03.401.402.401.402 1.03v10.42q0 6.012-2.634 10.592-2.69 4.523-7.557 7.042Q432.296 75 425.884 75Zm45-42.71q5.267 0 9.619 1.775 4.293 1.832 6.813 4.98 2.461 3.207 2.461 7.043v26.85q0 .63-.4 1.031-.401.401-1.03.401h-10.42q-.63 0-1.031-.4-.401-.401-.401-1.031v-1.603q0-.4-.23-.515-.17-.058-.457.286Q472.602 75 465.503 75q-6.355 0-10.134-2.977-3.721-3.034-3.721-8.874 0-6.183 4.293-9.561 4.237-3.32 12.367-3.32h7.614q.573 0 .573-.573V48.32q0-2.176-1.431-3.378-1.374-1.26-3.95-1.26-1.833 0-3.15.573-1.374.63-1.889 1.66-.4.573-.801.859-.344.286-.916.172l-10.707-1.374q-1.488-.115-1.316-1.088.4-3.435 2.92-6.24 2.461-2.749 6.526-4.352 4.008-1.603 9.103-1.603Zm-1.374 33.206q3.035 0 4.981-1.603 2.004-1.546 2.004-4.122v-1.775q0-.515-.573-.515h-4.637q-3.092 0-4.695 1.03-1.66 1.031-1.66 3.092 0 1.775 1.202 2.805 1.203 1.088 3.378 1.088Zm34.122-35.267q-3.492 0-5.668-2.176-2.175-2.118-2.175-5.553 0-3.378 2.175-5.439Q500.14 15 503.632 15q3.55 0 5.726 2.061 2.118 2.061 2.118 5.439 0 3.435-2.118 5.553-2.176 2.176-5.726 2.176Zm-5.21 44.141q-.63 0-1.03-.4-.4-.401-.4-1.031V34.35q0-.63.4-1.03.4-.401 1.03-.401h10.42q.63 0 1.03.4.402.401.402 1.031V72.94q0 .63-.401 1.03-.401.401-1.03.401h-10.42Zm42.596-42.08q6.24 0 10.19 3.95 3.951 4.008 3.951 10.821V72.94q0 .63-.4 1.03-.401.401-1.031.401h-10.42q-.63 0-1.03-.4-.401-.401-.401-1.031V49.924q0-2.806-1.489-4.523-1.488-1.718-3.95-1.718-2.52 0-4.008 1.718-1.546 1.717-1.546 4.523v23.015q0 .63-.4 1.03-.401.401-1.031.401h-10.42q-.63 0-1.03-.4-.401-.401-.401-1.031V34.35q0-.63.4-1.03.401-.401 1.031-.401h10.42q.63 0 1.03.4.401.401.401 1.031v2.29q0 .401.23.458.171.057.343-.229 3.263-4.58 9.56-4.58Z"/><path fill="#81E291" d="M.903 36.186c1.909.337 44.582 7.748 52.443 54.464 0 0 0 .112 0 0C38.972 89.64 12.02 82.677.903 36.186zm71.758 0s9.32 30.994-14.037 38.518c-3.706-9.882-7.749-28.86 14.037-38.518zM50.426 60.554 27.854 30.571h14.711L21.678.7H48.18l12.128 37.732H46.496z"/></svg>