<?xml version="1.0" encoding="UTF-8"?>
<svg id="Layer_2" data-name="Layer 2" xmlns="http://www.w3.org/2000/svg" viewBox="0 0 163.51 157.36">
  <defs>
    <style>
      .cls-1 {
        fill: #00a651;
        stroke-width: 2px;
      }

      .cls-1, .cls-2, .cls-3 {
        stroke: #162200;
        stroke-linecap: round;
        stroke-linejoin: round;
      }

      .cls-2 {
        stroke-width: 4.37px;
      }

      .cls-2, .cls-3 {
        fill: #009444;
      }

      .cls-3 {
        stroke-width: 3px;
      }
    </style>
  </defs>
  <g id="Layer_1-2" data-name="Layer 1">
    <g>
      <path class="cls-2" d="m81.19,2.18C41.6,2.18,9.43,33.93,8.74,73.37H2.18l11.9,23.77,11.9-23.77h-7.98c.69-35.08,29.34-63.32,64.58-63.32"/>
      <path class="cls-2" d="m17.93,119.97c20.36,33.96,64.14,45.22,98.31,25.53l3.37,5.62,14.28-22.43-26.51,2.02,4.1,6.84c-30.44,17.46-69.39,7.4-87.51-22.83"/>
      <path class="cls-2" d="m148.34,117.69c22.61-32.5,14.92-77.04-17.05-100.12l3.75-5.39-26.31-3.81,12.72,23.35,4.56-6.55c28.41,20.6,35.22,60.24,15.09,89.17"/>
    </g>
    <rect class="cls-3" x="42.48" y="85.08" width="8.34" height="30.88" rx="4.17" ry="4.17"/>
    <rect class="cls-3" x="55.82" y="76.42" width="8.34" height="39.54" rx="4.17" ry="4.17"/>
    <rect class="cls-3" x="69.31" y="69.18" width="8.34" height="46.78" rx="4.17" ry="4.17"/>
    <rect class="cls-3" x="83.21" y="78.13" width="8.34" height="37.83" rx="4.17" ry="4.17"/>
    <rect class="cls-3" x="97.15" y="65.3" width="8.34" height="50.65" rx="4.17" ry="4.17"/>
    <rect class="cls-3" x="111.08" y="56.2" width="8.34" height="59.76" rx="4.17" ry="4.17"/>
    <path class="cls-1" d="m46.65,78.08l26.83-17.32,13.68,8.24,26.95-24.26,2.2,2.34c.47.5,1.3.28,1.46-.39l1.79-7.44c.14-.57-.32-1.1-.9-1.06l-7.7.62c-.71.06-1.05.9-.57,1.43l1.87,2.07-25.2,22.1-13.58-7.62-26.83,17.22"/>
  </g>
</svg>